<?xml version="1.0"?><svg id="Layer_1" style="enable-background:new 0 0 128 128;" version="1.1" viewBox="0 0 128 128" xml:space="preserve" xmlns="http://www.w3.org/2000/svg" xmlns:xlink="http://www.w3.org/1999/xlink"><style type="text/css">
	.st0{fill:#3A2C60;}
	.st1{fill:#E6E7E8;}
	.st2{fill:#6DC9F7;}
	.st3{fill:#FA759E;}
	.st4{fill:#FFFFFF;}
	.st5{fill:#FFD7E5;}
	.st6{fill:#0089EF;}
	.st7{fill:#D4FBFF;}
</style><g><g><path class="st1" d="M120.211,112.007l-16.068-16.068c-1.151-1.152-2.688-1.786-4.327-1.786c-0.425,0-0.842,0.044-1.248,0.127    l-3.385-3.385c6.732-9.1,6.004-22.022-2.236-30.263c-4.081-4.082-9.427-6.43-15.161-6.741c0.105-0.543,0.166-1.109,0.166-1.697    c0-2.901-1.334-5.365-3.388-6.395V28.123c0-4.001-2.397-7.499-5.993-8.983c0.193-0.296,0.36-0.602,0.501-0.917    c0.938-2.103,0.764-4.326-0.492-6.26c-0.768-1.183-2.139-2.442-3.168-2.442c-0.886,0-1.282,0.642-1.571,1.11    c-0.323,0.525-0.812,1.317-2.28,2.291c-1.96,1.301-3.81,1.726-4.54,1.85c-1.643-1.038-8.749-5.134-16.709-3.794    c-6.308,1.062-11.037,5.662-13.376,8.435c-3.292,1.639-5.405,5.031-5.405,8.709v17.675c-2.055,1.031-3.389,3.494-3.389,6.396    c-0.001,3.947,2.498,7.021,5.668,6.903c1.638,6.029,5.557,11.306,10.819,14.66c-14.168,3.291-24.523,16.079-24.523,30.867v11.066    c0,1.877,1.527,3.405,3.405,3.405h69.072c1.877,0,3.405-1.527,3.405-3.405v-11.066c0-2.059-0.207-4.076-0.591-6.037    c1.743-0.72,3.381-1.677,4.912-2.812l3.383,3.383c-0.083,0.405-0.127,0.822-0.127,1.245c0,1.638,0.634,3.175,1.786,4.327    l16.067,16.068c1.193,1.192,2.76,1.789,4.328,1.789s3.135-0.596,4.328-1.789l0.137-0.137    C122.596,118.275,122.596,114.393,120.211,112.007z"/></g><g><path class="st6" d="M56.634,88.658c-8.667-8.667-8.668-22.77-0.001-31.437c4.319-4.319,9.989-6.484,15.663-6.498    c0.304-0.799,0.477-1.704,0.477-2.674c0-2.805-1.422-5.085-3.388-5.701v-18.37c0-4.121-2.869-7.564-6.717-8.462    c0.52-0.514,0.988-1.126,1.315-1.86c1.848-4.143-1.88-7.243-2.714-7.244c-0.76,0-0.494,1.38-3.278,3.228    c-2.793,1.854-5.354,2.067-5.354,2.067s-7.713-5.296-16.296-3.851c-6.16,1.037-10.773,5.694-12.896,8.249    c-2.963,1.386-5.021,4.386-5.021,7.873v18.37c-1.966,0.615-3.389,2.896-3.389,5.701c0,3.292,1.957,5.871,4.456,5.871    c0.319,0,0.636-0.06,0.948-0.152c1.651,7.214,6.545,13.205,13.067,16.341C18.559,72.143,7,84.982,7,100.479v11.065    c0,1.308,1.06,2.369,2.369,2.369H78.44c1.308,0,2.369-1.061,2.369-2.369v-11.065c0-2.307-0.262-4.553-0.747-6.716    C72.172,96.67,62.959,94.983,56.634,88.658z"/><g><g><path class="st5" d="M89.652,86.888l4.478,4.478c-0.769,0.238-1.483,0.659-2.088,1.263c-0.604,0.604-1.026,1.319-1.263,2.088      L86.3,90.239c0.613-0.485,1.199-1.016,1.767-1.584S89.166,87.501,89.652,86.888z"/></g><path class="st3" d="M88.071,57.221c-8.667-8.667-22.771-8.667-31.438,0c-8.667,8.667-8.666,22.77,0.001,31.437     c8.667,8.667,22.769,8.667,31.436,0C96.738,79.99,96.739,65.888,88.071,57.221z"/><ellipse class="st7" cx="72.352" cy="72.939" rx="17.05" ry="17.05" transform="matrix(0.224 -0.9746 0.9746 0.224 -14.9391 127.1158)"/><g><path class="st4" d="M60.296,63.883c6.658-6.658,17.454-6.658,24.112,0c2.947,2.947,4.584,6.705,4.922,10.556      c0.426-4.849-1.211-9.845-4.922-13.556c-6.658-6.658-17.454-6.658-24.112,0c-3.711,3.711-5.348,8.707-4.922,13.556      C55.712,70.588,57.349,66.83,60.296,63.883z"/></g><g><path class="st2" d="M115.428,108.749L99.112,92.433c-1.892-1.892-4.988-1.892-6.88,0l-0.385,0.385      c-1.892,1.892-1.892,4.988,0,6.88l16.316,16.316c1.892,1.892,4.988,1.892,6.88,0l0.385-0.385      C117.32,113.737,117.32,110.641,115.428,108.749z"/><g><path class="st0" d="M34.752,112.913h-8.875c-0.552,0-1,0.448-1,1s0.448,1,1,1h8.875c0.552,0,1-0.448,1-1       S35.304,112.913,34.752,112.913z"/><path class="st0" d="M85.115,60.176c-7.035-7.037-18.487-7.037-25.526,0c-7.038,7.038-7.038,18.488,0,25.526       c3.519,3.519,8.141,5.278,12.763,5.278s9.244-1.759,12.763-5.278C92.152,78.664,92.152,67.213,85.115,60.176z M83.701,84.288       c-6.258,6.258-16.439,6.258-22.698,0c-6.257-6.258-6.258-16.44,0-22.698c3.129-3.129,7.239-4.693,11.349-4.693       c4.109,0,8.22,1.564,11.349,4.693C89.959,67.848,89.959,78.03,83.701,84.288z"/><path class="st0" d="M116.164,108.013L99.848,91.697c-1.111-1.112-2.595-1.724-4.176-1.724c-0.448,0-0.887,0.054-1.313,0.15       l-3.367-3.367c6.742-9.088,6.022-22.007-2.213-30.242c-4.212-4.212-9.654-6.439-15.18-6.734c0.11-0.552,0.175-1.13,0.175-1.731       c0-2.897-1.335-5.355-3.389-6.374V23.978c0-4.001-2.406-7.498-6.01-8.966c0.202-0.306,0.376-0.623,0.521-0.948       c0.934-2.092,0.76-4.302-0.487-6.226c-0.763-1.176-2.123-2.426-3.139-2.426c-0.866,0-1.255,0.631-1.54,1.093       c-0.325,0.527-0.817,1.323-2.292,2.302c-1.977,1.313-3.843,1.735-4.567,1.858c-1.617-1.023-8.733-5.138-16.696-3.796       c-6.301,1.061-11.024,5.66-13.358,8.427c-3.284,1.631-5.393,5.014-5.393,8.681v17.697c-2.054,1.018-3.389,3.476-3.389,6.374       c0,3.853,2.396,6.871,5.456,6.871c0.067,0,0.135-0.002,0.204-0.006c1.64,6.06,5.585,11.361,10.884,14.713       C16.384,72.884,6,85.679,6,100.478v11.065c0,1.857,1.511,3.369,3.369,3.369h12.008c0.552,0,1-0.448,1-1s-0.448-1-1-1H9.369       c-0.755,0-1.369-0.614-1.369-1.369v-11.065C8,85.719,19.023,73.089,33.641,71.1c0.438-0.06,0.784-0.399,0.853-0.835       s-0.157-0.866-0.555-1.057c-6.291-3.024-10.973-8.88-12.526-15.663c-0.062-0.269-0.231-0.501-0.47-0.64       c-0.239-0.14-0.526-0.174-0.789-0.096c-0.254,0.075-0.472,0.112-0.664,0.112c-1.938,0-3.456-2.14-3.456-4.871       c0-2.3,1.105-4.251,2.688-4.747c0.417-0.131,0.701-0.518,0.701-0.955v-18.37c0-2.97,1.745-5.705,4.445-6.968       c0.133-0.063,0.251-0.153,0.345-0.267c2.104-2.532,6.5-6.926,12.293-7.901c8.066-1.358,15.491,3.639,15.564,3.689       c0.19,0.13,0.419,0.192,0.648,0.172c0.115-0.01,2.852-0.256,5.825-2.23c1.839-1.221,2.495-2.283,2.887-2.917       c0.429,0.291,1.181,0.97,1.664,2.035c0.537,1.185,0.528,2.416-0.025,3.657c-0.246,0.551-0.618,1.075-1.104,1.556       c-0.259,0.256-0.358,0.632-0.259,0.983c0.099,0.35,0.381,0.619,0.735,0.702c3.5,0.816,5.944,3.896,5.944,7.488v18.37       c0,0.437,0.284,0.824,0.701,0.954c1.582,0.496,2.688,2.448,2.688,4.747c0,0.607-0.083,1.178-0.221,1.71       c-5.679,0.194-11.301,2.43-15.626,6.755c-4.381,4.381-6.793,10.214-6.793,16.426c0,6.211,2.413,12.044,6.794,16.425       s10.214,6.793,16.425,6.793c2.393,0,4.727-0.366,6.946-1.057c0.327,1.75,0.51,3.545,0.51,5.377v11.065       c0,0.755-0.613,1.369-1.368,1.369H39.21c-0.552,0-1,0.448-1,1s0.448,1,1,1h39.23c1.857,0,3.368-1.511,3.368-3.369v-11.065       c0-2.067-0.218-4.089-0.606-6.057c1.763-0.725,3.421-1.691,4.968-2.841l3.372,3.372c-0.431,1.912,0.081,3.995,1.566,5.481       l16.316,16.317c1.151,1.151,2.664,1.727,4.177,1.727s3.025-0.576,4.178-1.728l0.384-0.385c1.111-1.111,1.724-2.595,1.724-4.176       C117.888,110.608,117.275,109.124,116.164,108.013z M57.341,87.951c-8.277-8.278-8.278-21.746-0.001-30.023       c4.139-4.139,9.575-6.208,15.012-6.208c5.436,0,10.873,2.07,15.012,6.208c8.276,8.277,8.276,21.745-0.001,30.023       c-4.003,4.003-9.334,6.208-15.011,6.208S61.345,91.954,57.341,87.951z M87.792,90.258c0.33-0.295,0.669-0.578,0.985-0.893       c0.317-0.317,0.597-0.656,0.892-0.987l2.642,2.642c-0.288,0.2-0.563,0.424-0.816,0.677l-0.386,0.386       c-0.256,0.256-0.472,0.535-0.671,0.822L87.792,90.258z M114.691,114.893C114.691,114.893,114.691,114.893,114.691,114.893       l-0.385,0.386c-1.489,1.492-3.917,1.491-5.408,0L92.582,98.962c-1.491-1.491-1.491-3.917,0-5.408l0.386-0.385       c0.719-0.719,1.679-1.114,2.704-1.114s1.985,0.396,2.703,1.114l16.316,16.317c0.719,0.718,1.115,1.679,1.115,2.704       C115.807,113.214,115.41,114.174,114.691,114.893z"/></g></g></g></g></g></svg>