<?xml version="1.0" encoding="utf-8"?>
<!-- Generator: Adobe Illustrator 25.0.1, SVG Export Plug-In . SVG Version: 6.00 Build 0)  -->
<svg version="1.0" id="Layer_1" xmlns="http://www.w3.org/2000/svg" xmlns:xlink="http://www.w3.org/1999/xlink" x="0px" y="0px"
	 viewBox="0 0 1038 680.5" style="enable-background:new 0 0 1038 680.5;" xml:space="preserve">
<style type="text/css">
	.st0{fill:#B3B3B3;}
	.st1{fill:#F16723;}
	.st2{fill:#3E3E3D;}
	.st3{fill:none;}
</style>
<path class="st0" d="M438.3,142.6h37.5v37.5h-37.5V142.6 M485,142.6h37.5v37.5H485L485,142.6 M529.5,142.6H567v37.5h-37.6
	L529.5,142.6 M574,142.3h37.5v37.5H574L574,142.3 M392.3,144.5H426v33.7h-33.7C392.3,167,392.3,155.7,392.3,144.5 M346.8,146.5h29.7
	v29.7c-9.9,0-19.8,0-29.7,0C346.8,166.3,346.8,156.4,346.8,146.5 M299.7,148.3h26.1v26.1h-26.1L299.7,148.3 M438.3,186.1h37.5v37.5
	h-37.5V186.1 M485,186.1h37.5v37.5H485L485,186.1 M529.5,186.1H567v37.5h-37.6L529.5,186.1 M392.3,188H426v33.7h-33.7
	C392.3,210.5,392.3,199.2,392.3,188 M346.8,190c9.9,0,19.8,0,29.7,0v29.7h-29.7C346.8,209.8,346.8,199.9,346.8,190 M299.7,191.8
	h26.1c0,8.7,0,17.4,0,26.1h-26.1L299.7,191.8 M254.1,193h23.7c0,7.9,0,15.8,0,23.7h-23.7L254.1,193 M207.5,194.2h21.2v21.1h-21.2
	V194.2 M438.3,229.5h37.5V267h-37.5V229.5 M485,229.5h37.5v37.6H485L485,229.5 M392.3,265.1c0-11.2,0-22.5,0-33.7H426v33.8
	L392.3,265.1 M346.8,233.4h29.7v29.7h-29.8C346.8,253.2,346.8,243.3,346.8,233.4 M299.7,235.2h26c0,8.7,0,17.4,0,26.1h-26
	C299.7,252.6,299.7,244,299.7,235.2 M254.1,236.4h23.7c0,7.9,0,15.8,0,23.7h-23.7L254.1,236.4 M438.3,272.9h37.5c0,12.5,0,25,0,37.6
	h-37.5V272.9 M392.3,274.8c11.3,0,22.5,0,33.8,0v33.8h-33.7C392.3,297.4,392.3,286.1,392.3,274.8 M346.8,276.8h29.7
	c0,9.9,0,19.8,0,29.7h-29.7C346.8,296.7,346.8,286.8,346.8,276.8 M299.7,278.7h26.1c0,8.7,0,17.4,0,26.1h-26
	C299.8,296.1,299.8,287.4,299.7,278.7 M254.1,279.8h23.7v23.7h-23.7L254.1,279.8 M207.5,281.1h21.2c0,7.1,0,14.1,0,21.2h-21.2
	C207.5,295.3,207.5,288.2,207.5,281.1 M160.5,282.3h18.9v18.9c-6.3,0-12.6,0-18.9,0C160.6,294.9,160.6,288.6,160.5,282.3
	 M438.3,316.4h37.5v37.5h-37.6L438.3,316.4 M485,316.4h37.5v37.5H485L485,316.4 M392.3,318.3H426c0,11.2,0,22.5,0,33.7h-33.7
	C392.3,340.8,392.3,329.5,392.3,318.3 M346.8,320.3h29.7c0,9.9,0,19.8,0,29.7h-29.7C346.8,340.1,346.8,330.2,346.8,320.3
	 M299.7,322.1h26.1v26.1h-26.1C299.7,339.6,299.7,330.9,299.7,322.1 M254.1,323.4h23.7c0,7.9,0,15.8,0,23.7h-23.7L254.1,323.4
	 M438.3,359.8c12.5,0,25,0,37.5,0v37.5h-37.5V359.8 M485,359.8h37.5v37.5H485L485,359.8 M392.3,361.7H426v33.8h-33.7
	C392.3,384.2,392.3,373,392.3,361.7 M346.8,363.7h29.7c0,9.9,0,19.8,0,29.7h-29.7C346.8,383.5,346.8,373.6,346.8,363.7 M299.7,365.6
	h26.1v26.1h-26.1L299.7,365.6 M438.3,403.2h37.5v37.5h-37.5V403.2 M485,403.2h37.5v37.5H485V403.2 M393.6,406h32v32h-32V406
	 M346.9,407.1h29.7c0,9.9,0,19.8,0,29.7h-29.8C346.8,427,346.8,417.1,346.9,407.1 M299.7,409c8.7,0,17.4,0,26.1,0V435h-26.1
	L299.7,409 M254.1,410.2h23.7c0,7.9,0,15.8,0,23.7h-23.7V410.2 M868.8,471.2c2.8-0.5,6.2-0.5,7.7,2.4c2.9,4.2-1.2,10.3-6.2,9.2
	C864.6,482.3,863.5,473.1,868.8,471.2 M866.3,475.9c-0.6,2.5,1,4.5,2.8,6.1c1.6-0.2,3.5,0.2,4.9-0.7c3-1.6,3.4-6.4,0.6-8.4
	C871.9,470.5,866.6,472,866.3,475.9 M869,473.6h4c0.2,2.4,0.5,4.7,0.8,7.1c-0.8-1.5-1.8-2.9-3-4.1c-0.4,1.2-0.8,2.4-1.1,3.6h-0.7
	C869.1,477.9,869.1,475.7,869,473.6 M870.5,474.5c-1.3,1.1,0.8,2.8,1.8,1.7C873.6,475.1,871.5,473.4,870.5,474.5 M453.2,490.5
	c2.8-2.7,7-2.6,10.6-2.8c10.1,0,20.2-0.1,30.2,0c3.5,0.2,7.5,0.4,10.2,3.1c2.7,3.2,1.6,7.7,1.9,11.5c-4,0.1-7.9,0.1-11.9,0
	c0-1.9,0-3.8,0-5.8h-31.5c0,3.6,0,7.2,0,10.7c10.4,0,20.9,0,31.3,0c3.7-0.1,7.4,0.8,10.7,2.6c2.9,4.4,2.1,9.8,2.2,14.8
	c0,3.8,0.3,8.3-2.7,11.1c-3.1,2.3-7.3,2.3-11,2.4c-11.1,0-22.3,0-33.5,0c-3.2-0.2-7.2-0.6-9.2-3.5c-2.1-3.6-1.7-7.9-1.8-11.9
	c4-0.1,8.1-0.1,12.1,0c0,1.9,0,3.9,0,5.8h33.9v-11.4c-10.6,0-21.3,0.1-31.9,0c-3.6-0.2-8-0.3-10.3-3.5c-2.2-3.5-1.8-7.9-1.9-11.9
	C450.9,498,450.6,493.7,453.2,490.5 M513.2,487.8c19.9-0.1,39.8-0.2,59.7,0c0,3,0,5.9,0,8.9c-7.7,0.3-15.4,0.1-23.1,0.2
	c0,13.8,0,27.5,0,41.3c-4.5,0.1-9,0.1-13.5,0.1v-41.4c-7.7,0-15.5,0.1-23.2-0.1C513.1,493.7,513.1,490.7,513.2,487.8 M580.8,538.2
	c0-16.8,0-33.6,0-50.5c14-0.2,28.1,0,42.1-0.1c3.5,0.1,7.4,0,10.5,2c2.5,1.5,3.7,4.5,3.7,7.4c0.1,4.3,0.1,8.7,0,13
	c-0.1,3-1.4,6.2-4.2,7.5c-4.3,2.2-9.2,1.5-13.9,1.7c8,6.1,15.5,12.8,23.4,18.9c-6.2,0.1-12.4,0-18.5,0.1
	c-6.8-6.2-13.3-12.7-20.2-18.7c-3.1-0.7-6.4-0.1-9.6-0.3c0,6.3,0,12.6,0,18.9C589.6,538.2,585.2,538.1,580.8,538.2 M594,496.4
	c0,4.7,0,9.3,0,14c8.5,0,17.1,0,25.6,0c1.6,0,3.7-0.3,4.1-2.2c0.4-3.2,0.4-6.4,0-9.6c-0.3-1.9-2.5-2.3-4.1-2.2
	C611.1,496.3,602.5,496.4,594,496.4 M654.2,538.1v-50.4c17.8-0.1,35.5-0.2,53.3,0c0,2.9,0,5.7,0,8.6c-13.3,0.3-26.7,0-40,0.2
	c0,3.7,0,7.3,0,11c7.8,0.3,15.7-0.1,23.5,0.3c-0.1,2.8-0.1,5.6,0,8.4c-7.8,0.3-15.7,0-23.5,0.2c0,4.1,0,8.2,0,12.3
	c13.5,0.3,27.1-0.4,40.7,0.4c-0.1,3-0.1,6.1,0,9.1c-18,0.2-35.9,0-53.9,0.1 M742.1,487.7c4.4-0.1,8.8-0.1,13.1,0.1
	c9.6,16.8,19.2,33.6,28.9,50.3c-5,0.1-10,0-15,0.1l-6-11c-10.2,0.2-20.5-0.4-30.7,0.3c-1.6,3.7-3.4,7.2-5.4,10.7
	c-4.5,0.1-9,0-13.4,0L742.1,487.7 M747.8,498.4c-0.4,2.7-2,5-3.3,7.4c-2.3,4-4.3,8.1-6.8,12c6.8,0,13.6,0,20.4,0
	C754.7,511.4,751.4,504.9,747.8,498.4 M793.6,487.7c3.3,0,6.6-0.2,9.9,0c1.4-0.1,2.2,1.1,3,2c7,9.2,14.2,18.2,21.2,27.4
	c7.5-9.8,14.9-19.6,22.4-29.4c3.7-0.1,7.3-0.1,11,0c0,16.8,0,33.6,0,50.4c-4.1,0.1-8.3,0-12.4,0c0-10.9,0.1-21.8-0.1-32.6
	c-6.1,9-13.1,17.4-19.4,26.3l-4.4,0.4c-6.7-9-13.5-17.9-20.1-27c0.1,11,0,21.9,0.1,32.9c-3.7,0.1-7.4,0.1-11.2,0L793.6,487.7
	L793.6,487.7z"/>
<path class="st1" d="M653.7,142.5c12.5,0,25,0,37.6,0c0,12.5,0,25,0,37.5h-37.6V142.5 M696.3,142.5h37.5c0,12.5,0,25,0,37.6h-37.5
	V142.5 M611.1,185.9h37.5v37.5h-37.5C611.1,210.9,611.1,198.4,611.1,185.9 M653.7,185.9h37.5v37.5h-37.5V185.9 M696.3,185.9h37.5
	v37.5h-37.5V185.9 M738.9,185.9h37.5c0,12.5,0,25,0,37.5h-37.5V185.9 M568.5,229.3c12.5,0,25,0,37.5,0v37.5h-37.5V229.3
	 M611.1,229.3c12.5,0,25,0,37.5,0v37.5h-37.5C611.1,254.4,611.1,241.9,611.1,229.3 M653.7,229.3c12.5,0,25,0,37.5,0v37.5h-37.5
	V229.3 M696.3,229.3h37.5v37.5h-37.5V229.3 M738.9,229.3h37.5v37.5h-37.5V229.3 M781.5,229.3h37.5c0,12.5,0,25,0,37.5h-37.5
	L781.5,229.3 M525.8,272.8h37.5v37.6h-37.5C525.8,297.8,525.8,285.3,525.8,272.8 M568.5,272.8c12.5,0,25,0,37.5,0
	c0,12.5,0,25,0,37.5h-37.5V272.8 M611.1,272.8h37.5c0,12.5,0,25,0,37.5h-37.5C611.1,297.8,611.1,285.3,611.1,272.8 M653.7,272.8
	c12.5,0,25,0,37.5,0c0,12.5,0,25,0,37.5h-37.5V272.8 M696.3,272.8h37.5c0,12.5,0,25,0,37.5h-37.5V272.8 M738.9,272.8h37.5
	c0,12.5,0,25,0,37.5h-37.5V272.8 M781.5,272.8h37.5c0,12.5,0,25,0,37.5h-37.5C781.5,297.8,781.5,285.3,781.5,272.8 M824.2,272.8
	h37.5c0,12.5,0,25,0,37.5c-12.5,0-25,0-37.5,0V272.8 M568.5,353.8c0-12.5,0-25,0-37.5H606v37.5C593.5,353.8,581,353.8,568.5,353.8
	 M611.1,316.2h37.5c0,12.5,0,25,0,37.5c-12.5,0-25,0-37.5,0C611.1,341.3,611.1,328.8,611.1,316.2 M653.7,316.2h37.5
	c0,12.5,0,25,0,37.5c-12.5,0-25,0-37.5,0L653.7,316.2 M696.3,316.2h37.5c0,12.5,0,25,0,37.5c-12.5,0-25,0-37.5,0
	C696.3,341.3,696.3,328.8,696.3,316.2 M738.9,316.2h37.5c0,12.5,0,25,0,37.5h-37.5L738.9,316.2 M781.5,353.8c0-12.5,0-25,0-37.5
	h37.5c0,12.5,0,25,0,37.5C806.5,353.8,794,353.8,781.5,353.8 M568.4,359.7H606v37.6h-37.5L568.4,359.7 M611.1,359.7h37.5v37.6h-37.5
	C611.1,384.7,611.1,372.2,611.1,359.7 M653.7,359.7h37.5v37.5h-37.5V359.7 M696.3,359.7h37.5v37.6h-37.5V359.7 M738.9,359.7h37.5
	c0,12.5,0,25,0,37.5h-37.5V359.7 M781.5,359.7h37.5c0,12.5,0,25,0,37.5h-37.5C781.5,384.7,781.5,372.2,781.5,359.7 M568.5,403.1H606
	v37.5c-12.5,0-25,0-37.5,0L568.5,403.1 M611.1,403.1h37.5v37.5h-37.5C611.1,428.1,611.1,415.6,611.1,403.1 M653.7,403.1h37.5v37.5
	c-12.5,0-25,0-37.5,0V403.1 M696.3,403.1h37.5v37.5h-37.5V403.1 M738.9,403.1h37.5v37.5h-37.5V403.1 M781.5,403.1h37.5
	c0,12.5,0,25,0,37.5c-12.5,0-25,0-37.5,0C781.5,428.1,781.5,415.6,781.5,403.1L781.5,403.1z"/>
<path class="st2" d="M870.4,474.4c1-1.1,3.1,0.6,1.8,1.7C871.2,477.2,869.1,475.5,870.4,474.4 M160.6,487.7c14,0,28,0,42,0
	c3.6,0,7.7,0.2,10.3,3c2.4,2.5,2.2,6.2,2.3,9.5c-0.1,3.8,0.3,7.7-0.4,11.5c-0.6,3-2.9,5.5-5.9,6.2c-3.9,1-8,0.6-12,0.7
	c-8.3,0-16.5-0.1-24.8,0.1c0.1,6.5,0,13,0,19.5c-3.9,0-7.7,0-11.5,0C160.5,521.3,160.5,504.5,160.6,487.7 M172.1,496.3
	c0,4.5,0,9,0,13.6c8.8,0,17.6,0,26.4,0c1.6-0.2,3.9,0.1,4.7-1.7c0.7-3.1,0.8-6.3,0.2-9.5c-0.4-2.3-3.2-2.2-5-2.3
	C189.6,496.3,180.9,496.3,172.1,496.3 M228.2,487.7h42.9c3.7,0,8,0.6,10.2,4c2.3,3.8,1.3,8.4,1.5,12.6c-0.1,4.1,0.7,9.2-2.7,12.3
	c-4.2,3.5-10.1,2.4-15.2,2.6c7.6,6.4,15.4,12.5,22.9,19c-5.5,0.1-11.1,0.1-16.6,0.1c-6.1-5.8-12.3-11.5-18.3-17.3
	c-0.9-0.7-1.7-1.7-2.9-1.7c-3.4-0.2-6.7,0-10.1,0c0,6.3,0,12.7,0,19c-3.8,0-7.7,0-11.5,0c0-16.8,0-33.6,0-50.4 M239.9,496.4
	c-0.1,4.7-0.1,9.5,0.1,14.2c8.8-0.1,17.6,0,26.4,0c1.7-0.1,4.4,0,4.9-2.2c0.5-3.2,0.5-6.5,0-9.7c-0.4-2.3-3.1-2.2-4.9-2.3
	C257.5,496.4,248.6,496.5,239.9,496.4 M307.2,488.5c2.9-0.5,5.8-0.7,8.8-0.6c11.4,0,22.8,0,34.2,0c3.4,0.1,7.3,0.1,10,2.5
	c2.4,2.4,2.5,6,2.6,9.2v26.9c-0.1,3.2-0.2,6.8-2.5,9.2c-2.7,2.4-6.6,2.4-10.1,2.6c-12.3,0-24.5,0-36.8,0c-3.5-0.1-7.4-0.1-10.2-2.5
	c-2.4-2.5-2.5-6.2-2.6-9.4c0-8.4,0-16.9,0-25.3c0.1-3.2,0-6.7,1.6-9.6C303.4,489.9,305.2,488.8,307.2,488.5 M312.4,496.9
	c0,10.6,0,21.3,0,31.9c12.9,0,25.8,0,38.6,0c0-10.6,0-21.3,0-31.9C338.2,496.9,325.3,496.9,312.4,496.9 M382.7,487.9
	c13.4,0,26.8,0,40.2,0c3.4,0,7-0.2,10.1,1.5c2.3,1.2,3.8,3.5,4,6.1c0.4,3.8,0.1,7.5,0.2,11.3c0,3,0,6.5-2.3,8.8
	c-2.4,2.6-6.2,3-9.6,3c-10.4,0-20.7,0-31.1,0c-0.1,6.5,0,13.1,0,19.6c-3.8,0-7.7,0-11.5,0C382.7,521.6,382.7,504.8,382.7,487.9
	 M394.3,496.6c0,4.5,0,9,0,13.5c8.8,0,17.5,0,26.3,0c1.7-0.1,4.4,0.1,5-2.1c0.6-3.1,0.6-6.3,0-9.4c-0.6-2.2-3.3-2-5.1-2.1
	C411.7,496.5,403,496.5,394.3,496.6L394.3,496.6z"/>
<rect x="119" y="107.5" class="st3" width="800" height="465.5"/>
</svg>
